<svg width="120" height="65" viewBox="0 0 120 65" version="1.1" xmlns="http://www.w3.org/2000/svg" xmlns:xlink="http://www.w3.org/1999/xlink">
<title>Page 1</title>
<desc>Created using Figma</desc>
<g id="Canvas" transform="translate(-692 -3378)">
<g id="Fill 1">
<use xlink:href="#path0_fill" transform="translate(723.191 3378)" fill="#FFFFFF"/>
</g>
<g id="Fill 5">
<use xlink:href="#path1_fill" transform="translate(692 3394.9)" fill="#FFFFFF"/>
</g>
</g>
<defs>
<path id="path0_fill" fill-rule="evenodd" d="M 23.236 63.0211L 35.551 55.9111L 35.555 55.9171L 35.555 55.9081L 55.907 55.9081L 55.907 47.1201L 57.325 47.1201L 57.325 57.3251L 35.929 57.3251L 23.702 64.3841L 23.694 64.3891L 23.692 64.3851C 23.001 63.3171 22.471 62.1601 22.115 60.9541C 21.769 59.7811 21.586 58.5591 21.575 57.3251L 0 57.3251L 0 47.1201L 1.417 47.1201L 1.417 55.9081L 21.859 55.9081L 21.859 57.2161L 21.859 57.2751C 21.864 58.5001 22.044 59.7111 22.387 60.8741C 22.605 61.6121 22.889 62.3311 23.236 63.0211ZM 0.709 0L 57.325 0L 57.325 10.444L 55.907 10.444L 55.907 1.417L 1.417 1.417L 1.417 10.444L 0 10.444L 0 0L 0.709 0Z"/>
<path id="path1_fill" fill-rule="evenodd" d="M 115.369 23.605L 115.369 2.394L 119.72 2.394L 119.72 0L 108.345 0L 108.345 2.394L 112.739 2.394L 112.739 23.605L 115.369 23.605ZM 76.696 11.938L 76.696 2.39404L 79.225 2.39404C 81.147 2.39404 81.923 3.47904 81.923 5.63204L 81.923 8.76804C 81.923 11.022 80.973 11.938 79.022 11.938L 76.696 11.938ZM 74.065 0L 74.065 23.605L 76.696 23.605L 76.696 14.298L 79.022 14.298C 82.765 14.298 84.519 12.342 84.519 8.599L 84.519 5.766C 84.519 2.192 82.929 0 79.225 0L 74.065 0ZM 58.775 2.39404L 63.159 2.39404L 63.159 21.279L 56.921 21.279C 57.662 20.503 57.898 19.491 58 17.805L 58.775 2.39404ZM 67.61 26.842L 67.61 21.279L 65.823 21.279L 65.823 0L 56.347 0L 55.437 17.839C 55.369 19.289 55.201 20.368 54.391 21.279L 52.874 21.279L 52.874 26.842L 55.403 26.842L 55.403 23.605L 65.048 23.605L 65.048 26.842L 67.61 26.842ZM 20.814 21.2109L 20.814 12.4099L 23.107 12.4099C 25.366 12.4099 26.411 13.2879 26.411 15.9169L 26.411 18.0079C 26.411 20.1979 25.534 21.2109 23.613 21.2109L 20.814 21.2109ZM 20.814 10.016L 20.814 2.39404L 23.41 2.39404C 25.299 2.39404 26.007 3.40704 26.007 5.49704L 26.007 6.87904C 26.007 9.33904 24.927 10.016 22.837 10.016L 20.814 10.016ZM 18.183 0L 18.183 23.605L 23.613 23.605C 27.288 23.605 29.008 21.616 29.008 18.075L 29.008 16.085C 29.008 13.489 28.131 11.667 25.838 11.027C 27.895 10.386 28.603 8.835 28.603 6.34L 28.603 5.227C 28.603 1.753 27.152 0 23.478 0L 18.183 0ZM 38.053 16.5981L 38.053 5.66207C 38.053 3.50407 38.828 2.42407 40.75 2.42407L 43.78 2.42407L 43.78 16.5981L 38.053 16.5981ZM 46.411 0.0300293L 40.75 0.0300293C 37.041 0.0300293 35.422 2.22203 35.422 5.79603L 35.422 23.605L 38.053 23.605L 38.053 18.85L 43.78 18.85L 43.78 23.605L 46.411 23.605L 46.411 0.0300293ZM 93.563 16.5981L 93.563 5.66207C 93.563 3.50407 94.34 2.42407 96.262 2.42407L 99.291 2.42407L 99.291 16.5981L 93.563 16.5981ZM 101.921 0.0300293L 96.262 0.0300293C 92.553 0.0300293 90.933 2.22203 90.933 5.79603L 90.933 23.605L 93.563 23.605L 93.563 18.85L 99.291 18.85L 99.291 23.605L 101.921 23.605L 101.921 0.0300293ZM 9.072 23.605L 11.769 23.605L 5.598 10.757L 11.567 0L 8.903 0L 2.631 11.398L 2.631 0L 0 0L 0 23.605L 2.631 23.605L 2.631 15.681L 4.014 13.354L 9.072 23.605Z"/>
</defs>
</svg>
