<svg width="24" height="24" viewBox="0 0 24 24" version="1.1" xmlns="http://www.w3.org/2000/svg" xmlns:xlink="http://www.w3.org/1999/xlink">
<g id="Canvas" transform="translate(-1014 -3578)">
<g id="facebook">
<g id="F_icon">
<g id="Blue_1_">
<use xlink:href="#path0_fill" transform="translate(1014.05 3578.05)" fill="#FFFFFF"/>
</g>
<g id="f">
<use xlink:href="#path1_fill" transform="translate(1023.7 3581.66)"/>
</g>
</g>
</g>
</g>
<defs>
<path id="path0_fill" d="M 22.5631 23.8813C 23.2909 23.8813 23.8811 23.2911 23.8811 22.5632L 23.8811 1.31805C 23.8811 0.589992 23.291 0 22.5631 0L 1.31805 0C 0.589992 0 0 0.589992 0 1.31805L 0 22.5632C 0 23.291 0.589899 23.8813 1.31805 23.8813L 22.5631 23.8813Z"/>
<path id="path1_fill" d="M 6.83407 20.2744L 6.83407 11.0263L 9.93822 11.0263L 10.403 7.42211L 6.83407 7.42211L 6.83407 5.12108C 6.83407 4.07759 7.12383 3.36649 8.62017 3.36649L 10.5287 3.36565L 10.5287 0.142054C 10.1986 0.0981312 9.0657 0 7.74765 0C 4.99599 0 3.11212 1.67963 3.11212 4.76414L 3.11212 7.42211L 0 7.42211L 0 11.0263L 3.11212 11.0263L 3.11212 20.2744L 6.83407 20.2744Z"/>
</defs>
</svg>
