<svg width="24" height="24" viewBox="0 0 24 24" version="1.1" xmlns="http://www.w3.org/2000/svg" xmlns:xlink="http://www.w3.org/1999/xlink">
<g id="Canvas" transform="translate(-970 -3578)">
<g id="Icon/24/social/insta">
<g id="insta">
<use xlink:href="#path0_fill" transform="translate(970 3578)" fill="#9B9B9B"/>
</g>
<mask id="mask0_outline" mask-type="alpha">
<g id="insta">
<use xlink:href="#path0_fill" transform="translate(970 3578)" fill="#FFFFFF"/>
</g>
</mask>
<g id="color/icon/white" mask="url(#mask0_outline)">
<g id="Rectangle">
<use xlink:href="#path1_fill" transform="translate(970 3578)" fill="#FFFFFF"/>
</g>
</g>
</g>
</g>
<defs>
<path id="path0_fill" fill-rule="evenodd" d="M 16 12C 16 10.8958 15.6094 9.95313 14.8281 9.17188C 14.0469 8.39062 13.1042 8 12 8C 10.8958 8 9.95313 8.39062 9.17188 9.17188C 8.39062 9.95313 8 10.8958 8 12C 8 13.1042 8.39062 14.0469 9.17188 14.8281C 9.95313 15.6094 10.8958 16 12 16C 13.1042 16 14.0469 15.6094 14.8281 14.8281C 15.6094 14.0469 16 13.1042 16 12ZM 18.1562 12C 18.1562 13.7083 17.5573 15.1615 16.3594 16.3594C 15.1615 17.5573 13.7083 18.1562 12 18.1562C 10.2917 18.1562 8.83855 17.5573 7.64062 16.3594C 6.4427 15.1615 5.84375 13.7083 5.84375 12C 5.84375 10.2917 6.4427 8.83855 7.64062 7.64062C 8.83855 6.4427 10.2917 5.84375 12 5.84375C 13.7083 5.84375 15.1615 6.4427 16.3594 7.64062C 17.5573 8.83855 18.1562 10.2917 18.1562 12ZM 19.8438 5.59375C 19.8438 5.98959 19.7031 6.32812 19.4219 6.60938C 19.1406 6.89063 18.8021 7.03125 18.4062 7.03125C 18.0104 7.03125 17.6719 6.89063 17.3906 6.60938C 17.1094 6.32812 16.9688 5.98959 16.9688 5.59375C 16.9688 5.19791 17.1094 4.85938 17.3906 4.57812C 17.6719 4.29687 18.0104 4.15625 18.4062 4.15625C 18.8021 4.15625 19.1406 4.29687 19.4219 4.57812C 19.7031 4.85938 19.8438 5.19791 19.8438 5.59375ZM 12 2.15625C 11.9271 2.15625 11.5286 2.15365 10.8047 2.14844C 10.0807 2.14323 9.53125 2.14323 9.15625 2.14844C 8.78125 2.15365 8.27865 2.16927 7.64844 2.19531C 7.01823 2.22135 6.48177 2.27344 6.03906 2.35156C 5.59635 2.42969 5.22396 2.52604 4.92188 2.64062C 4.40104 2.84896 3.94271 3.15104 3.54688 3.54688C 3.15104 3.94271 2.84896 4.40104 2.64062 4.92188C 2.52604 5.22396 2.42969 5.59635 2.35156 6.03906C 2.27344 6.48177 2.22135 7.01823 2.19531 7.64844C 2.16927 8.27865 2.15365 8.78125 2.14844 9.15625C 2.14323 9.53125 2.14323 10.0807 2.14844 10.8047C 2.15365 11.5286 2.15625 11.9271 2.15625 12C 2.15625 12.0729 2.15365 12.4714 2.14844 13.1953C 2.14323 13.9193 2.14323 14.4687 2.14844 14.8438C 2.15365 15.2188 2.16927 15.7214 2.19531 16.3516C 2.22135 16.9818 2.27344 17.5182 2.35156 17.9609C 2.42969 18.4036 2.52604 18.776 2.64062 19.0781C 2.84896 19.599 3.15104 20.0573 3.54688 20.4531C 3.94271 20.849 4.40104 21.151 4.92188 21.3594C 5.22396 21.474 5.59635 21.5703 6.03906 21.6484C 6.48177 21.7266 7.01823 21.7786 7.64844 21.8047C 8.27865 21.8307 8.78125 21.8464 9.15625 21.8516C 9.53125 21.8568 10.0807 21.8568 10.8047 21.8516C 11.5286 21.8464 11.9271 21.8438 12 21.8438C 12.0729 21.8438 12.4714 21.8464 13.1953 21.8516C 13.9193 21.8568 14.4687 21.8568 14.8438 21.8516C 15.2188 21.8464 15.7214 21.8307 16.3516 21.8047C 16.9818 21.7786 17.5182 21.7266 17.9609 21.6484C 18.4036 21.5703 18.776 21.474 19.0781 21.3594C 19.599 21.151 20.0573 20.849 20.4531 20.4531C 20.849 20.0573 21.151 19.599 21.3594 19.0781C 21.474 18.776 21.5703 18.4036 21.6484 17.9609C 21.7266 17.5182 21.7786 16.9818 21.8047 16.3516C 21.8307 15.7214 21.8464 15.2188 21.8516 14.8438C 21.8568 14.4687 21.8568 13.9193 21.8516 13.1953C 21.8464 12.4714 21.8438 12.0729 21.8438 12C 21.8438 11.9271 21.8464 11.5286 21.8516 10.8047C 21.8568 10.0807 21.8568 9.53125 21.8516 9.15625C 21.8464 8.78125 21.8307 8.27865 21.8047 7.64844C 21.7786 7.01823 21.7266 6.48177 21.6484 6.03906C 21.5703 5.59635 21.474 5.22396 21.3594 4.92188C 21.151 4.40104 20.849 3.94271 20.4531 3.54688C 20.0573 3.15104 19.599 2.84896 19.0781 2.64062C 18.776 2.52604 18.4036 2.42969 17.9609 2.35156C 17.5182 2.27344 16.9818 2.22135 16.3516 2.19531C 15.7214 2.16927 15.2188 2.15365 14.8438 2.14844C 14.4687 2.14323 13.9193 2.14323 13.1953 2.14844C 12.4714 2.15365 12.0729 2.15625 12 2.15625ZM 24 12C 24 14.3854 23.974 16.0365 23.9219 16.9531C 23.8177 19.1198 23.1719 20.7969 21.9844 21.9844C 20.7969 23.1719 19.1198 23.8177 16.9531 23.9219C 16.0365 23.974 14.3854 24 12 24C 9.61457 24 7.96355 23.974 7.04688 23.9219C 4.8802 23.8177 3.20313 23.1719 2.01562 21.9844C 0.828119 20.7969 0.182292 19.1198 0.078125 16.9531C 0.0260414 16.0365 0 14.3854 0 12C 0 9.61457 0.0260414 7.96355 0.078125 7.04688C 0.182292 4.8802 0.828119 3.20313 2.01562 2.01562C 3.20313 0.828119 4.8802 0.182292 7.04688 0.078125C 7.96355 0.0260414 9.61457 0 12 0C 14.3854 0 16.0365 0.0260414 16.9531 0.078125C 19.1198 0.182292 20.7969 0.828119 21.9844 2.01562C 23.1719 3.20313 23.8177 4.8802 23.9219 7.04688C 23.974 7.96355 24 9.61457 24 12Z"/>
<path id="path1_fill" fill-rule="evenodd" d="M 0 0L 24 0L 24 24L 0 24L 0 0Z"/>
</defs>
</svg>
