<svg width="390" height="631" viewBox="0 0 390 631" version="1.1" xmlns="http://www.w3.org/2000/svg" xmlns:xlink="http://www.w3.org/1999/xlink">
<title>Page 1</title>
<desc>Created using Figma</desc>
<g id="Canvas" transform="translate(-535 2638)">
<g id="Rectangle 11">
<mask id="mask0_outline_ins">
<use xlink:href="#path0_fill" fill="white" transform="translate(535 -2397)"/>
</mask>
<g mask="url(#mask0_outline_ins)">
<use xlink:href="#path1_stroke_2x" transform="translate(535 -2397)" fill="#E9EBF5"/>
</g>
</g>
<g id="Rectangle 11">
<mask id="mask1_outline_ins">
<use xlink:href="#path2_fill" fill="white" transform="translate(535 -2638)"/>
</mask>
<g mask="url(#mask1_outline_ins)">
<use xlink:href="#path3_stroke_2x" transform="translate(535 -2638)" fill="#E9EBF5"/>
</g>
</g>
<g id="Rectangle 11">
<mask id="mask2_outline_ins">
<use xlink:href="#path4_fill" fill="white" transform="translate(535 -2490)"/>
</mask>
<g mask="url(#mask2_outline_ins)">
<use xlink:href="#path5_stroke_2x" transform="translate(535 -2490)" fill="#E9EBF5"/>
</g>
</g>
<g id="Rectangle 11">
<mask id="mask3_outline_ins">
<use xlink:href="#path6_fill" fill="white" transform="translate(626 -2490)"/>
</mask>
<g mask="url(#mask3_outline_ins)">
<use xlink:href="#path7_stroke_2x" transform="translate(626 -2490)" fill="#E9EBF5"/>
</g>
</g>
<g id="Rectangle 11">
<mask id="mask4_outline_ins">
<use xlink:href="#path8_fill" fill="white" transform="translate(626 -2490)"/>
</mask>
<g mask="url(#mask4_outline_ins)">
<use xlink:href="#path9_stroke_2x" transform="translate(626 -2490)" fill="#E9EBF5"/>
</g>
</g>
<g id="Rectangle 11">
<mask id="mask5_outline_ins">
<use xlink:href="#path10_fill" fill="white" transform="translate(626 -2490)"/>
</mask>
<g mask="url(#mask5_outline_ins)">
<use xlink:href="#path11_stroke_2x" transform="translate(626 -2490)" fill="#E9EBF5"/>
</g>
</g>
<g id="Rectangle 11">
<mask id="mask6_outline_ins">
<use xlink:href="#path12_fill" fill="white" transform="translate(626 -2467)"/>
</mask>
<g mask="url(#mask6_outline_ins)">
<use xlink:href="#path13_stroke_2x" transform="translate(626 -2467)" fill="#E9EBF5"/>
</g>
</g>
<g id="Rectangle 11">
<mask id="mask7_outline_ins">
<use xlink:href="#path14_fill" fill="white" transform="translate(639 -2467)"/>
</mask>
<g mask="url(#mask7_outline_ins)">
<use xlink:href="#path15_stroke_2x" transform="translate(639 -2467)" fill="#E9EBF5"/>
</g>
</g>
<g id="Rectangle 11">
<mask id="mask8_outline_ins">
<use xlink:href="#path16_fill" fill="white" transform="translate(639 -2467)"/>
</mask>
<g mask="url(#mask8_outline_ins)">
<use xlink:href="#path17_stroke_2x" transform="translate(639 -2467)" fill="#E9EBF5"/>
</g>
</g>
<g id="Path 2">
<use xlink:href="#path18_stroke" transform="translate(535 -2637)" fill="#E9EBF5"/>
</g>
</g>
<defs>
<path id="path0_fill" fill-rule="evenodd" d="M 0 0L 390 0L 390 390L 0 390L 0 0Z"/>
<path id="path1_stroke_2x" d="M 0 0L 0 -1L -1 -1L -1 0L 0 0ZM 390 0L 391 0L 391 -1L 390 -1L 390 0ZM 390 390L 390 391L 391 391L 391 390L 390 390ZM 0 390L -1 390L -1 391L 0 391L 0 390ZM 0 1L 390 1L 390 -1L 0 -1L 0 1ZM 389 0L 389 390L 391 390L 391 0L 389 0ZM 390 389L 0 389L 0 391L 390 391L 390 389ZM 1 390L 1 0L -1 0L -1 390L 1 390Z"/>
<path id="path2_fill" fill-rule="evenodd" d="M 0 0L 150 0L 150 242L 0 242L 0 0Z"/>
<path id="path3_stroke_2x" d="M 0 0L 0 -1L -1 -1L -1 0L 0 0ZM 150 0L 151 0L 151 -1L 150 -1L 150 0ZM 150 242L 150 243L 151 243L 151 242L 150 242ZM 0 242L -1 242L -1 243L 0 243L 0 242ZM 0 1L 150 1L 150 -1L 0 -1L 0 1ZM 149 0L 149 242L 151 242L 151 0L 149 0ZM 150 241L 0 241L 0 243L 150 243L 150 241ZM 1 242L 1 0L -1 0L -1 242L 1 242Z"/>
<path id="path4_fill" fill-rule="evenodd" d="M 0 0L 150 0L 150 94L 0 94L 0 0Z"/>
<path id="path5_stroke_2x" d="M 0 0L 0 -1L -1 -1L -1 0L 0 0ZM 150 0L 151 0L 151 -1L 150 -1L 150 0ZM 150 94L 150 95L 151 95L 151 94L 150 94ZM 0 94L -1 94L -1 95L 0 95L 0 94ZM 0 1L 150 1L 150 -1L 0 -1L 0 1ZM 149 0L 149 94L 151 94L 151 0L 149 0ZM 150 93L 0 93L 0 95L 150 95L 150 93ZM 1 94L 1 0L -1 0L -1 94L 1 94Z"/>
<path id="path6_fill" fill-rule="evenodd" d="M 0 0L 59 0L 59 94L 0 94L 0 0Z"/>
<path id="path7_stroke_2x" d="M 0 0L 0 -1L -1 -1L -1 0L 0 0ZM 59 0L 60 0L 60 -1L 59 -1L 59 0ZM 59 94L 59 95L 60 95L 60 94L 59 94ZM 0 94L -1 94L -1 95L 0 95L 0 94ZM 0 1L 59 1L 59 -1L 0 -1L 0 1ZM 58 0L 58 94L 60 94L 60 0L 58 0ZM 59 93L 0 93L 0 95L 59 95L 59 93ZM 1 94L 1 0L -1 0L -1 94L 1 94Z"/>
<path id="path8_fill" fill-rule="evenodd" d="M 0 0L 59 0L 59 37L 0 37L 0 0Z"/>
<path id="path9_stroke_2x" d="M 0 0L 0 -1L -1 -1L -1 0L 0 0ZM 59 0L 60 0L 60 -1L 59 -1L 59 0ZM 59 37L 59 38L 60 38L 60 37L 59 37ZM 0 37L -1 37L -1 38L 0 38L 0 37ZM 0 1L 59 1L 59 -1L 0 -1L 0 1ZM 58 0L 58 37L 60 37L 60 0L 58 0ZM 59 36L 0 36L 0 38L 59 38L 59 36ZM 1 37L 1 0L -1 0L -1 37L 1 37Z"/>
<path id="path10_fill" fill-rule="evenodd" d="M 0 0L 23 0L 23 37L 0 37L 0 0Z"/>
<path id="path11_stroke_2x" d="M 0 0L 0 -1L -1 -1L -1 0L 0 0ZM 23 0L 24 0L 24 -1L 23 -1L 23 0ZM 23 37L 23 38L 24 38L 24 37L 23 37ZM 0 37L -1 37L -1 38L 0 38L 0 37ZM 0 1L 23 1L 23 -1L 0 -1L 0 1ZM 22 0L 22 37L 24 37L 24 0L 22 0ZM 23 36L 0 36L 0 38L 23 38L 23 36ZM 1 37L 1 0L -1 0L -1 37L 1 37Z"/>
<path id="path12_fill" fill-rule="evenodd" d="M 0 0L 23 0L 23 14L 0 14L 0 0Z"/>
<path id="path13_stroke_2x" d="M 0 0L 0 -1L -1 -1L -1 0L 0 0ZM 23 0L 24 0L 24 -1L 23 -1L 23 0ZM 23 14L 23 15L 24 15L 24 14L 23 14ZM 0 14L -1 14L -1 15L 0 15L 0 14ZM 0 1L 23 1L 23 -1L 0 -1L 0 1ZM 22 0L 22 14L 24 14L 24 0L 22 0ZM 23 13L 0 13L 0 15L 23 15L 23 13ZM 1 14L 1 0L -1 0L -1 14L 1 14Z"/>
<path id="path14_fill" fill-rule="evenodd" d="M 0 0L 10 0L 10 14L 0 14L 0 0Z"/>
<path id="path15_stroke_2x" d="M 0 0L 0 -1L -1 -1L -1 0L 0 0ZM 10 0L 11 0L 11 -1L 10 -1L 10 0ZM 10 14L 10 15L 11 15L 11 14L 10 14ZM 0 14L -1 14L -1 15L 0 15L 0 14ZM 0 1L 10 1L 10 -1L 0 -1L 0 1ZM 9 0L 9 14L 11 14L 11 0L 9 0ZM 10 13L 0 13L 0 15L 10 15L 10 13ZM 1 14L 1 0L -1 0L -1 14L 1 14Z"/>
<path id="path16_fill" fill-rule="evenodd" d="M 0 0L 10 0L 10 6L 0 6L 0 0Z"/>
<path id="path17_stroke_2x" d="M 0 0L 0 -1L -1 -1L -1 0L 0 0ZM 10 0L 11 0L 11 -1L 10 -1L 10 0ZM 10 6L 10 7L 11 7L 11 6L 10 6ZM 0 6L -1 6L -1 7L 0 7L 0 6ZM 0 1L 10 1L 10 -1L 0 -1L 0 1ZM 9 0L 9 6L 11 6L 11 0L 9 0ZM 10 5L 0 5L 0 7L 10 7L 10 5ZM 1 6L 1 0L -1 0L -1 6L 1 6Z"/>
<path id="path18_stroke" d="M 389 239.958L 388.5 239.958L 389 239.958ZM 113 175.958C 112.528 175.793 112.528 175.793 112.528 175.793C 112.528 175.793 112.528 175.793 112.528 175.792C 112.528 175.792 112.528 175.793 112.528 175.793C 112.528 175.793 112.528 175.794 112.527 175.795C 112.527 175.797 112.525 175.801 112.523 175.807C 112.519 175.818 112.513 175.835 112.504 175.859C 112.486 175.905 112.458 175.976 112.42 176.067C 112.345 176.248 112.229 176.51 112.069 176.826C 111.749 177.459 111.257 178.302 110.57 179.142C 109.196 180.822 107.076 182.458 104.004 182.458L 104.004 183.458C 107.479 183.458 109.857 181.594 111.344 179.775C 112.088 178.865 112.617 177.957 112.961 177.278C 113.133 176.937 113.26 176.653 113.343 176.451C 113.385 176.351 113.417 176.271 113.438 176.215C 113.449 176.187 113.457 176.165 113.462 176.15C 113.465 176.142 113.467 176.136 113.469 176.131C 113.47 176.129 113.47 176.127 113.471 176.126C 113.471 176.125 113.471 176.125 113.472 176.124C 113.472 176.124 113.472 176.124 113.472 176.124C 113.472 176.123 113.472 176.123 113 175.958ZM 104.004 182.458C 97.7741 182.458 92.5046 176.704 92.5046 169.961L 91.5046 169.961C 91.5046 177.174 97.1429 183.458 104.004 183.458L 104.004 182.458ZM 92.5046 169.961C 92.5046 166.563 93.7001 161.165 96.8697 156.629C 100.023 152.117 105.127 148.458 113 148.458L 113 147.458C 104.76 147.458 99.366 151.312 96.05 156.056C 92.7502 160.778 91.5046 166.382 91.5046 169.961L 92.5046 169.961ZM 113 148.458C 128.913 148.458 148.5 161.1 148.5 182.958L 149.5 182.958C 149.5 160.407 129.313 147.458 113 147.458L 113 148.458ZM 148.5 182.958C 148.5 193.945 144.135 208.083 134.757 219.467C 125.392 230.836 111.029 239.458 91 239.458L 91 240.458C 111.352 240.458 125.99 231.683 135.529 220.103C 145.056 208.538 149.5 194.175 149.5 182.958L 148.5 182.958ZM 91 239.458C 50.8363 239.458 1.5 207.88 1.5 147.958L 0.5 147.958C 0.5 208.543 50.4009 240.458 91 240.458L 91 239.458ZM 1.5 147.958C 1.5 117.948 13.322 81.0711 37.6458 51.7029C 61.9582 22.3486 98.7554 0.5 148.735 0.5L 148.735 -0.5C 98.4297 -0.5 61.3595 21.5037 36.8757 51.0651C 12.4032 80.6126 0.5 117.715 0.5 147.958L 1.5 147.958ZM 148.735 0.5C 248.826 0.5 388.5 81.2799 388.5 239.958L 389.5 239.958C 389.5 80.5752 249.212 -0.5 148.735 -0.5L 148.735 0.5ZM 388.5 239.958C 388.5 319.36 358.037 416.497 294.237 493.776C 230.448 571.042 133.336 628.458 0 628.458L 0 629.458C 133.657 629.458 231.045 571.89 295.008 494.413C 358.959 416.95 389.5 319.587 389.5 239.958L 388.5 239.958Z"/>
</defs>
</svg>
