<svg width="390" height="631" viewBox="0 0 390 631" version="1.1" xmlns="http://www.w3.org/2000/svg" xmlns:xlink="http://www.w3.org/1999/xlink">
<g id="Canvas" transform="translate(-147 2519)">
<g id="Path 2">
<use xlink:href="#path0_stroke" transform="translate(147 -2518)" fill="#E9E9E9"/>
</g>
</g>
<defs>
<path id="path0_stroke" d="M 389 239.974L 388.5 239.974L 389 239.974ZM 113 175.97C 112.528 175.805 112.528 175.805 112.528 175.804C 112.528 175.804 112.528 175.804 112.528 175.804C 112.528 175.804 112.528 175.804 112.528 175.804C 112.528 175.805 112.528 175.805 112.527 175.807C 112.527 175.809 112.525 175.813 112.523 175.818C 112.519 175.83 112.513 175.847 112.504 175.87C 112.486 175.917 112.458 175.988 112.42 176.078C 112.345 176.26 112.229 176.522 112.069 176.838C 111.749 177.471 111.257 178.314 110.57 179.154C 109.196 180.834 107.076 182.47 104.004 182.47L 104.004 183.47C 107.479 183.47 109.857 181.606 111.344 179.786C 112.088 178.876 112.617 177.969 112.961 177.289C 113.133 176.949 113.26 176.664 113.343 176.463C 113.385 176.362 113.417 176.282 113.438 176.226C 113.449 176.199 113.457 176.177 113.462 176.161C 113.465 176.154 113.467 176.148 113.469 176.143C 113.47 176.141 113.47 176.139 113.471 176.138C 113.471 176.137 113.471 176.137 113.472 176.136C 113.472 176.136 113.472 176.136 113.472 176.135C 113.472 176.135 113.472 176.135 113 175.97ZM 104.004 182.47C 97.7742 182.47 92.5046 176.716 92.5046 169.973L 91.5046 169.973C 91.5046 177.186 97.1429 183.47 104.004 183.47L 104.004 182.47ZM 92.5046 169.973C 92.5046 166.574 93.7001 161.175 96.8697 156.64C 100.023 152.127 105.127 148.468 113 148.468L 113 147.468C 104.76 147.468 99.3659 151.322 96.05 156.067C 92.7502 160.789 91.5046 166.393 91.5046 169.973L 92.5046 169.973ZM 113 148.468C 128.913 148.468 148.5 161.111 148.5 182.97L 149.5 182.97C 149.5 160.418 129.313 147.468 113 147.468L 113 148.468ZM 148.5 182.97C 148.5 193.958 144.135 208.096 134.757 219.481C 125.392 230.851 111.029 239.474 91 239.474L 91 240.474C 111.352 240.474 125.99 231.698 135.529 220.117C 145.056 208.552 149.5 194.188 149.5 182.97L 148.5 182.97ZM 91 239.474C 50.8364 239.474 1.5 207.894 1.5 147.968L 0.5 147.968C 0.5 208.557 50.4009 240.474 91 240.474L 91 239.474ZM 1.5 147.968C 1.5 117.956 13.322 81.0764 37.6458 51.7063C 61.9582 22.3501 98.7554 0.5 148.735 0.5L 148.735 -0.5C 98.4297 -0.5 61.3595 21.5052 36.8757 51.0685C 12.4032 80.618 0.5 117.723 0.5 147.968L 1.5 147.968ZM 148.735 0.5C 248.826 0.5 388.5 81.2852 388.5 239.974L 389.5 239.974C 389.5 80.5807 249.212 -0.5 148.735 -0.5L 148.735 0.5ZM 388.5 239.974C 388.5 319.381 358.037 416.524 294.237 493.809C 230.448 571.08 133.336 628.5 0 628.5L 0 629.5C 133.657 629.5 231.045 571.928 295.008 494.446C 358.959 416.978 389.5 319.608 389.5 239.974L 388.5 239.974Z"/>
</defs>
</svg>
