<svg width="391" height="629" viewBox="0 0 391 629" version="1.1" xmlns="http://www.w3.org/2000/svg" xmlns:xlink="http://www.w3.org/1999/xlink">
<title>Page 1</title>
<desc>Created using Figma</desc>
<g id="Canvas" transform="translate(-925 2469)">
<g id="Mask">
<mask id="mask0_outline_ins">
<use xlink:href="#path0_fill" fill="white" transform="translate(925 -2228)"/>
</mask>
<g mask="url(#mask0_outline_ins)">
<use xlink:href="#path1_stroke_2x" transform="translate(925 -2228)" fill="#E9E9E9"/>
</g>
</g>
<g id="Rectangle 11">
<mask id="mask1_outline_ins">
<use xlink:href="#path2_fill" fill="white" transform="translate(925 -2469)"/>
</mask>
<g mask="url(#mask1_outline_ins)">
<use xlink:href="#path3_stroke_2x" transform="translate(925 -2469)" fill="#E9E9E9"/>
</g>
</g>
<g id="Rectangle 11">
<mask id="mask2_outline_ins">
<use xlink:href="#path4_fill" fill="white" transform="translate(925 -2321)"/>
</mask>
<g mask="url(#mask2_outline_ins)">
<use xlink:href="#path5_stroke_2x" transform="translate(925 -2321)" fill="#E9E9E9"/>
</g>
</g>
<g id="Rectangle 11">
<mask id="mask3_outline_ins">
<use xlink:href="#path6_fill" fill="white" transform="translate(1016 -2321)"/>
</mask>
<g mask="url(#mask3_outline_ins)">
<use xlink:href="#path7_stroke_2x" transform="translate(1016 -2321)" fill="#E9E9E9"/>
</g>
</g>
<g id="Rectangle 11">
<mask id="mask4_outline_ins">
<use xlink:href="#path8_fill" fill="white" transform="translate(1016 -2321)"/>
</mask>
<g mask="url(#mask4_outline_ins)">
<use xlink:href="#path9_stroke_2x" transform="translate(1016 -2321)" fill="#E9E9E9"/>
</g>
</g>
<g id="Rectangle 11">
<mask id="mask5_outline_ins">
<use xlink:href="#path10_fill" fill="white" transform="translate(1016 -2321)"/>
</mask>
<g mask="url(#mask5_outline_ins)">
<use xlink:href="#path11_stroke_2x" transform="translate(1016 -2321)" fill="#E9E9E9"/>
</g>
</g>
<g id="Rectangle 11">
<mask id="mask6_outline_ins">
<use xlink:href="#path12_fill" fill="white" transform="translate(1016 -2298)"/>
</mask>
<g mask="url(#mask6_outline_ins)">
<use xlink:href="#path13_stroke_2x" transform="translate(1016 -2298)" fill="#E9E9E9"/>
</g>
</g>
<g id="Rectangle 11">
<mask id="mask7_outline_ins">
<use xlink:href="#path14_fill" fill="white" transform="translate(1029 -2298)"/>
</mask>
<g mask="url(#mask7_outline_ins)">
<use xlink:href="#path15_stroke_2x" transform="translate(1029 -2298)" fill="#E9E9E9"/>
</g>
</g>
<g id="Rectangle 11">
<mask id="mask8_outline_ins">
<use xlink:href="#path16_fill" fill="white" transform="translate(1029 -2298)"/>
</mask>
<g mask="url(#mask8_outline_ins)">
<use xlink:href="#path17_stroke_2x" transform="translate(1029 -2298)" fill="#E9E9E9"/>
</g>
</g>
</g>
<defs>
<path id="path0_fill" fill-rule="evenodd" d="M 0 0L 391 0L 391 388L 0 388L 0 0Z"/>
<path id="path1_stroke_2x" d="M 0 0L 0 -1L -1 -1L -1 0L 0 0ZM 391 0L 392 0L 392 -1L 391 -1L 391 0ZM 391 388L 391 389L 392 389L 392 388L 391 388ZM 0 388L -1 388L -1 389L 0 389L 0 388ZM 0 1L 391 1L 391 -1L 0 -1L 0 1ZM 390 0L 390 388L 392 388L 392 0L 390 0ZM 391 387L 0 387L 0 389L 391 389L 391 387ZM 1 388L 1 0L -1 0L -1 388L 1 388Z"/>
<path id="path2_fill" fill-rule="evenodd" d="M 0 0L 150 0L 150 242L 0 242L 0 0Z"/>
<path id="path3_stroke_2x" d="M 0 0L 0 -1L -1 -1L -1 0L 0 0ZM 150 0L 151 0L 151 -1L 150 -1L 150 0ZM 150 242L 150 243L 151 243L 151 242L 150 242ZM 0 242L -1 242L -1 243L 0 243L 0 242ZM 0 1L 150 1L 150 -1L 0 -1L 0 1ZM 149 0L 149 242L 151 242L 151 0L 149 0ZM 150 241L 0 241L 0 243L 150 243L 150 241ZM 1 242L 1 0L -1 0L -1 242L 1 242Z"/>
<path id="path4_fill" fill-rule="evenodd" d="M 0 0L 150 0L 150 94L 0 94L 0 0Z"/>
<path id="path5_stroke_2x" d="M 0 0L 0 -1L -1 -1L -1 0L 0 0ZM 150 0L 151 0L 151 -1L 150 -1L 150 0ZM 150 94L 150 95L 151 95L 151 94L 150 94ZM 0 94L -1 94L -1 95L 0 95L 0 94ZM 0 1L 150 1L 150 -1L 0 -1L 0 1ZM 149 0L 149 94L 151 94L 151 0L 149 0ZM 150 93L 0 93L 0 95L 150 95L 150 93ZM 1 94L 1 0L -1 0L -1 94L 1 94Z"/>
<path id="path6_fill" fill-rule="evenodd" d="M 0 0L 59 0L 59 94L 0 94L 0 0Z"/>
<path id="path7_stroke_2x" d="M 0 0L 0 -1L -1 -1L -1 0L 0 0ZM 59 0L 60 0L 60 -1L 59 -1L 59 0ZM 59 94L 59 95L 60 95L 60 94L 59 94ZM 0 94L -1 94L -1 95L 0 95L 0 94ZM 0 1L 59 1L 59 -1L 0 -1L 0 1ZM 58 0L 58 94L 60 94L 60 0L 58 0ZM 59 93L 0 93L 0 95L 59 95L 59 93ZM 1 94L 1 0L -1 0L -1 94L 1 94Z"/>
<path id="path8_fill" fill-rule="evenodd" d="M 0 0L 59 0L 59 37L 0 37L 0 0Z"/>
<path id="path9_stroke_2x" d="M 0 0L 0 -1L -1 -1L -1 0L 0 0ZM 59 0L 60 0L 60 -1L 59 -1L 59 0ZM 59 37L 59 38L 60 38L 60 37L 59 37ZM 0 37L -1 37L -1 38L 0 38L 0 37ZM 0 1L 59 1L 59 -1L 0 -1L 0 1ZM 58 0L 58 37L 60 37L 60 0L 58 0ZM 59 36L 0 36L 0 38L 59 38L 59 36ZM 1 37L 1 0L -1 0L -1 37L 1 37Z"/>
<path id="path10_fill" fill-rule="evenodd" d="M 0 0L 23 0L 23 37L 0 37L 0 0Z"/>
<path id="path11_stroke_2x" d="M 0 0L 0 -1L -1 -1L -1 0L 0 0ZM 23 0L 24 0L 24 -1L 23 -1L 23 0ZM 23 37L 23 38L 24 38L 24 37L 23 37ZM 0 37L -1 37L -1 38L 0 38L 0 37ZM 0 1L 23 1L 23 -1L 0 -1L 0 1ZM 22 0L 22 37L 24 37L 24 0L 22 0ZM 23 36L 0 36L 0 38L 23 38L 23 36ZM 1 37L 1 0L -1 0L -1 37L 1 37Z"/>
<path id="path12_fill" fill-rule="evenodd" d="M 0 0L 23 0L 23 14L 0 14L 0 0Z"/>
<path id="path13_stroke_2x" d="M 0 0L 0 -1L -1 -1L -1 0L 0 0ZM 23 0L 24 0L 24 -1L 23 -1L 23 0ZM 23 14L 23 15L 24 15L 24 14L 23 14ZM 0 14L -1 14L -1 15L 0 15L 0 14ZM 0 1L 23 1L 23 -1L 0 -1L 0 1ZM 22 0L 22 14L 24 14L 24 0L 22 0ZM 23 13L 0 13L 0 15L 23 15L 23 13ZM 1 14L 1 0L -1 0L -1 14L 1 14Z"/>
<path id="path14_fill" fill-rule="evenodd" d="M 0 0L 10 0L 10 14L 0 14L 0 0Z"/>
<path id="path15_stroke_2x" d="M 0 0L 0 -1L -1 -1L -1 0L 0 0ZM 10 0L 11 0L 11 -1L 10 -1L 10 0ZM 10 14L 10 15L 11 15L 11 14L 10 14ZM 0 14L -1 14L -1 15L 0 15L 0 14ZM 0 1L 10 1L 10 -1L 0 -1L 0 1ZM 9 0L 9 14L 11 14L 11 0L 9 0ZM 10 13L 0 13L 0 15L 10 15L 10 13ZM 1 14L 1 0L -1 0L -1 14L 1 14Z"/>
<path id="path16_fill" fill-rule="evenodd" d="M 0 0L 10 0L 10 6L 0 6L 0 0Z"/>
<path id="path17_stroke_2x" d="M 0 0L 0 -1L -1 -1L -1 0L 0 0ZM 10 0L 11 0L 11 -1L 10 -1L 10 0ZM 10 6L 10 7L 11 7L 11 6L 10 6ZM 0 6L -1 6L -1 7L 0 7L 0 6ZM 0 1L 10 1L 10 -1L 0 -1L 0 1ZM 9 0L 9 6L 11 6L 11 0L 9 0ZM 10 5L 0 5L 0 7L 10 7L 10 5ZM 1 6L 1 0L -1 0L -1 6L 1 6Z"/>
</defs>
</svg>
