<svg width="244" height="159" viewBox="0 0 244 159" version="1.1" xmlns="http://www.w3.org/2000/svg" xmlns:xlink="http://www.w3.org/1999/xlink">
<g id="Canvas" transform="translate(-145 3628)">
<g id="Fill 1">
<use xlink:href="#path0_fill" transform="translate(209.161 -3628)" fill="#231F20"/>
</g>
<g id="Fill 3">
<use xlink:href="#path1_fill" transform="translate(169.84 -3483.83)" fill="#231F20"/>
</g>
<g id="Group 7">
<g id="Fill 5">
<use xlink:href="#path2_fill" transform="translate(145.999 -3593.56)" fill="#231F20"/>
</g>
</g>
</g>
<defs>
<path id="path0_fill" fill-rule="evenodd" d="M 47.0529 128.466L 71.9908 113.972L 71.9989 113.985L 71.9989 113.966L 113.212 113.966L 113.212 96.0522L 116.083 96.0522L 116.083 116.855L 72.7562 116.855L 47.9966 131.244L 47.9804 131.254L 47.9763 131.246C 46.577 129.069 45.5038 126.711 44.7829 124.252C 44.0822 121.861 43.7117 119.37 43.6894 116.855L 0 116.855L 0 96.0522L 2.86943 96.0522L 2.86943 113.966L 44.2645 113.966L 44.2645 116.633L 44.2645 116.753C 44.2746 119.25 44.6391 121.719 45.3337 124.089C 45.7751 125.594 46.3502 127.059 47.0529 128.466ZM 1.43572 0L 116.083 0L 116.083 21.2897L 113.212 21.2897L 113.212 2.8885L 2.86943 2.8885L 2.86943 21.2897L 0 21.2897L 0 0L 1.43572 0Z"/>
<path id="path1_fill" fill-rule="evenodd" d="M 189.817 3.56938L 189.817 2.54199L 195.55 2.54199L 195.55 3.56938L 193.217 3.56938L 193.217 13.0849L 192.15 13.0849L 192.15 3.56938L 189.817 3.56938ZM 176.471 2.54199L 177.522 2.54199L 177.522 6.96138L 182.86 6.96138L 182.86 2.54199L 183.91 2.54199L 183.91 13.0849L 182.86 13.0849L 182.86 7.98876L 177.522 7.98876L 177.522 13.0849L 176.471 13.0849L 176.471 2.54199ZM 164.446 3.30444C 163.673 3.30444 162.938 3.50829 162.243 3.91394C 161.548 4.3196 161.006 4.86794 160.615 5.5549C 160.226 6.2439 160.032 7.01037 160.032 7.85837C 160.032 9.10794 160.463 10.1639 161.326 11.0261C 162.188 11.8904 163.229 12.3206 164.446 12.3206C 165.26 12.3206 166.009 12.1228 166.7 11.7274C 167.395 11.3319 167.933 10.7876 168.32 10.0986C 168.707 9.41167 168.901 8.64725 168.901 7.80537C 168.901 6.9696 168.707 6.21333 168.32 5.53656C 167.933 4.86183 167.386 4.3196 166.684 3.91394C 165.981 3.50829 165.234 3.30444 164.446 3.30444ZM 164.398 2.27686C 165.983 2.27686 167.312 2.81093 168.379 3.87501C 169.444 4.93909 169.981 6.24982 169.981 7.8072C 169.981 9.35236 169.448 10.661 168.383 11.7374C 167.316 12.8116 166.018 13.3498 164.483 13.3498C 162.934 13.3498 161.621 12.8137 160.554 11.7435C 159.487 10.6733 158.952 9.38089 158.952 7.85816C 158.952 6.84505 159.195 5.90736 159.681 5.04305C 160.167 4.17874 160.832 3.49993 161.674 3.01274C 162.512 2.52147 163.422 2.27686 164.398 2.27686ZM 141.145 13.0849L 142.596 2.54199L 142.813 2.54199L 147.076 11.1912L 151.31 2.54199L 151.47 2.54199L 152.977 13.0849L 151.962 13.0849L 150.911 5.53649L 147.201 13.0849L 146.926 13.0849L 143.18 5.47942L 142.175 13.0849L 141.145 13.0849ZM 129.387 2.54199L 135.383 2.54199L 135.383 3.56938L 130.438 3.56938L 130.438 6.87372L 135.341 6.87372L 135.341 7.90111L 130.438 7.90111L 130.438 12.0575L 135.341 12.0575L 135.341 13.0849L 129.387 13.0849L 129.387 2.54199ZM 117.387 3.56934L 117.387 7.15295L 119.163 7.17537C 119.88 7.17537 120.407 7.1081 120.741 6.9756C 121.073 6.8431 121.336 6.63314 121.524 6.3396C 121.715 6.04606 121.808 5.71583 121.808 5.35299C 121.808 5.00033 121.715 4.67622 121.524 4.38064C 121.336 4.08914 121.083 3.87918 120.771 3.75484C 120.459 3.63049 119.951 3.56934 119.24 3.56934L 117.387 3.56934ZM 116.338 2.54199L 118.426 2.54199C 119.623 2.54199 120.433 2.59295 120.85 2.69692C 121.447 2.84776 121.937 3.15149 122.318 3.61218C 122.699 4.07288 122.887 4.65384 122.887 5.35099C 122.887 6.05426 122.703 6.63115 122.332 7.0898C 121.962 7.54234 121.451 7.85015 120.803 8.00915C 120.327 8.1233 119.439 8.18038 118.138 8.18038L 117.387 8.18038L 117.387 13.0849L 116.338 13.0849L 116.338 2.54199ZM 96.0255 5.28784L 97.2203 5.28784L 99.2777 8.13557L 101.313 5.28784L 102.501 5.28784L 99.875 8.96523L 102.852 13.085L 101.655 13.085L 99.2817 9.79896L 96.9368 13.085L 95.7461 13.085L 98.6843 8.9693L 96.0255 5.28784ZM 74.8035 2.54199L 75.8545 2.54199L 75.8545 6.96138L 81.1924 6.96138L 81.1924 2.54199L 82.2433 2.54199L 82.2433 13.0849L 81.1924 13.0849L 81.1924 7.98876L 75.8545 7.98876L 75.8545 13.0849L 74.8035 13.0849L 74.8035 2.54199ZM 61.2461 0L 62.1796 0C 62.3416 0.25073 62.5583 0.43623 62.8317 0.560576C 63.101 0.684922 63.425 0.748115 63.8017 0.748115C 64.1824 0.748115 64.4902 0.693076 64.7251 0.582999C 64.9579 0.472923 65.1787 0.281307 65.3893 0L 66.2924 0C 66.1891 0.432153 65.9198 0.790922 65.4926 1.08038C 65.0632 1.36984 64.4962 1.51254 63.7936 1.51254C 63.095 1.51254 62.5259 1.37188 62.0865 1.0865C 61.6451 0.803153 61.3636 0.442346 61.2461 0ZM 67.8821 13.0849L 66.7886 13.0849L 66.7886 4.98407L 59.8772 13.0849L 59.6403 13.0849L 59.6403 2.54199L 60.6913 2.54199L 60.6913 10.7611L 67.6472 2.54199L 67.8821 2.54199L 67.8821 13.0849ZM 48.5919 4.75366L 46.7896 8.59208L 50.386 8.59208L 48.5919 4.75366ZM 48.7235 2.54199L 53.6099 13.0849L 52.484 13.0849L 50.8478 9.61953L 46.3077 9.61953L 44.6816 13.0849L 43.5152 13.0849L 48.4603 2.54199L 48.7235 2.54199ZM 31.7743 3.5672C 32.5094 2.70697 33.4206 2.27686 34.504 2.27686C 35.3646 2.27686 36.0774 2.52555 36.6383 3.02497C 37.1993 3.52236 37.4787 4.16855 37.4787 4.96355C 37.4787 6.08266 36.9542 6.88582 35.9033 7.37301C 37.2843 7.80313 37.9748 8.73266 37.9748 10.1677C 37.9748 11.1217 37.667 11.8923 37.0494 12.4753C 36.4277 13.0562 35.5833 13.3498 34.508 13.3498C 33.7568 13.3498 33.1027 13.1928 32.5499 12.8789C 31.997 12.565 31.4746 12.0187 30.9845 11.2359L 31.7945 10.7507C 32.2805 11.4703 32.7362 11.931 33.1614 12.1328C 33.5846 12.3367 34.0241 12.4406 34.4817 12.4406C 35.1479 12.4406 35.7149 12.2449 36.1807 11.8576C 36.6485 11.4724 36.8813 10.9057 36.8813 10.1514C 36.8813 9.75597 36.8024 9.41147 36.6424 9.11793C 36.4824 8.8244 36.2576 8.5859 35.9701 8.40447C 35.6765 8.22305 35.4031 8.11093 35.1398 8.05997C 34.8806 8.01513 34.4493 7.98863 33.8499 7.98863L 33.6717 7.98863L 33.6717 7.06316L 34.022 7.06316C 35.5793 7.06316 36.3569 6.4292 36.3569 5.16332C 36.3569 4.57828 36.1787 4.11351 35.8243 3.76493C 35.4679 3.42043 35.0224 3.24716 34.4777 3.24716C 33.7709 3.24716 33.1108 3.5672 32.4911 4.20728L 31.7743 3.5672ZM 24.622 13.0849L 23.5264 13.0849L 23.5264 4.98407L 16.6151 13.0849L 16.3802 13.0849L 16.3802 2.54199L 17.4292 2.54199L 17.4292 10.7611L 24.385 2.54199L 24.622 2.54199L 24.622 13.0849ZM 2.02095 12.1023L 8.41185 12.1023L 5.1354 4.74341L 2.02095 12.1023ZM 1.05098 14.6545L 0 14.6545L 0 12.1024L 0.840375 12.1024L 4.9491 2.54199L 5.31157 2.54199L 9.65115 12.1024L 10.4612 12.1024L 10.4612 14.6545L 9.41018 14.6545L 9.41018 13.0849L 1.05098 13.0849L 1.05098 14.6545Z"/>
<path id="path2_fill" fill-rule="evenodd" d="M 233.622 48.1179L 233.622 4.88008L 242.433 4.88008L 242.433 0L 219.399 0L 219.399 4.88008L 228.296 4.88008L 228.296 48.1179L 233.622 48.1179ZM 155.309 24.3352L 155.309 4.88013L 160.431 4.88013C 164.323 4.88013 165.894 7.09186 165.894 11.4807L 165.894 17.8733C 165.894 22.468 163.97 24.3352 160.02 24.3352L 155.309 24.3352ZM 149.982 0L 149.982 48.1179L 155.309 48.1179L 155.309 29.1459L 160.02 29.1459C 167.599 29.1459 171.151 25.1587 171.151 17.5287L 171.151 11.7538C 171.151 4.46831 167.931 0 160.431 0L 149.982 0ZM 119.019 4.88013L 127.897 4.88013L 127.897 43.3765L 115.265 43.3765C 116.766 41.7946 117.243 39.7317 117.45 36.2949L 119.019 4.88013ZM 136.91 54.7164L 136.91 43.3764L 133.292 43.3764L 133.292 0L 114.103 0L 112.26 36.3641C 112.122 39.3199 111.782 41.5194 110.142 43.3764L 107.07 43.3764L 107.07 54.7164L 112.191 54.7164L 112.191 48.1179L 131.722 48.1179L 131.722 54.7164L 136.91 54.7164ZM 42.1484 43.2379L 42.1484 25.2974L 46.7917 25.2974C 51.3662 25.2974 53.4823 27.0871 53.4823 32.4462L 53.4823 36.7087C 53.4823 41.1729 51.7064 43.2379 47.8163 43.2379L 42.1484 43.2379ZM 42.1484 20.4173L 42.1484 4.88013L 47.4053 4.88013C 51.2305 4.88013 52.6642 6.94509 52.6642 11.2055L 52.6642 14.0226C 52.6642 19.0372 50.4772 20.4173 46.2449 20.4173L 42.1484 20.4173ZM 36.8206 0L 36.8206 48.1179L 47.8163 48.1179C 55.2582 48.1179 58.7412 44.0634 58.7412 36.8452L 58.7412 32.7887C 58.7412 27.4968 56.9653 23.7827 52.3219 22.4781C 56.4874 21.1715 57.9211 18.0098 57.9211 12.9238L 57.9211 10.655C 57.9211 3.57342 54.9828 0 47.5429 0L 36.8206 0ZM 77.0573 33.8343L 77.0573 11.5417C 77.0573 7.1427 78.6267 4.94116 82.5188 4.94116L 88.6545 4.94116L 88.6545 33.8343L 77.0573 33.8343ZM 93.9823 0.0610352L 82.5188 0.0610352C 75.008 0.0610352 71.7296 4.52934 71.7296 11.8148L 71.7296 48.1178L 77.0573 48.1178L 77.0573 38.4249L 88.6545 38.4249L 88.6545 48.1178L 93.9823 48.1178L 93.9823 0.0610352ZM 189.465 33.8343L 189.465 11.5417C 189.465 7.1427 191.038 4.94116 194.931 4.94116L 201.064 4.94116L 201.064 33.8343L 189.465 33.8343ZM 206.39 0.0610352L 194.931 0.0610352C 187.42 0.0610352 184.139 4.52934 184.139 11.8148L 184.139 48.1178L 189.465 48.1178L 189.465 38.4249L 201.064 38.4249L 201.064 48.1178L 206.39 48.1178L 206.39 0.0610352ZM 18.3708 48.1179L 23.8322 48.1179L 11.336 21.9277L 23.4232 0L 18.0286 0L 5.32778 23.2344L 5.32778 0L 0 0L 0 48.1179L 5.32778 48.1179L 5.32778 31.9651L 8.12835 27.2216L 18.3708 48.1179Z"/>
</defs>
</svg>
