<svg width="24" height="24" viewBox="0 0 24 24" version="1.1" xmlns="http://www.w3.org/2000/svg" xmlns:xlink="http://www.w3.org/1999/xlink">
<g id="Canvas" transform="translate(-926 -3578)">
<g id="Icon/24/social/vk">
<g id="vk">
<use xlink:href="#path0_fill" transform="translate(926 3583)" fill="#9B9B9B"/>
</g>
<mask id="mask0_outline" mask-type="alpha">
<g id="vk">
<use xlink:href="#path0_fill" transform="translate(926 3583)" fill="#FFFFFF"/>
</g>
</mask>
<g id="color/icon/white" mask="url(#mask0_outline)">
<g id="Rectangle">
<use xlink:href="#path1_fill" transform="translate(926 3578)" fill="#FFFFFF"/>
</g>
</g>
</g>
</g>
<defs>
<path id="path0_fill" fill-rule="evenodd" d="M 23.9663 0.988926C 24.1579 1.52207 23.5331 2.74661 22.092 4.66259C 21.892 4.92916 21.6213 5.28319 21.2798 5.7247C 20.9465 6.14955 20.7175 6.44944 20.5925 6.62437C 20.4675 6.79931 20.3405 7.00548 20.2114 7.2429C 20.0823 7.48031 20.0323 7.65525 20.0614 7.76771C 20.0906 7.88017 20.1447 8.02386 20.2239 8.1988C 20.303 8.37374 20.4384 8.55284 20.63 8.7361C 20.8216 8.91937 21.059 9.14012 21.3422 9.39836C 21.3756 9.41502 21.3964 9.43169 21.4047 9.44835C 22.5793 10.5396 23.3748 11.4601 23.7913 12.2098C 23.8163 12.2515 23.8434 12.3036 23.8726 12.366C 23.9017 12.4285 23.9309 12.5389 23.96 12.6972C 23.9892 12.8554 23.9871 12.9971 23.9538 13.122C 23.9205 13.247 23.8163 13.3615 23.6414 13.4656C 23.4665 13.5698 23.2207 13.6218 22.9042 13.6218L 19.7053 13.6718C 19.5054 13.7135 19.2722 13.6926 19.0056 13.6093C 18.739 13.526 18.5224 13.4344 18.3558 13.3344L 18.1059 13.1845C 17.856 13.0095 17.5644 12.743 17.2312 12.3848C 16.898 12.0266 16.6127 11.7038 16.3753 11.4164C 16.1379 11.129 15.8838 10.8874 15.6131 10.6916C 15.3423 10.4959 15.107 10.4313 14.9071 10.498C 14.8821 10.5063 14.8488 10.5209 14.8071 10.5417C 14.7655 10.5625 14.6947 10.6229 14.5947 10.7229C 14.4947 10.8228 14.4052 10.9457 14.326 11.0915C 14.2469 11.2373 14.1761 11.4539 14.1136 11.7413C 14.0511 12.0287 14.0241 12.3515 14.0324 12.7097C 14.0324 12.8346 14.0178 12.9492 13.9887 13.0533C 13.9595 13.1574 13.9283 13.2345 13.8949 13.2844L 13.845 13.3469C 13.695 13.5052 13.4743 13.5968 13.1827 13.6218L 11.7457 13.6218C 11.1543 13.6551 10.5462 13.5864 9.92139 13.4157C 9.29661 13.2449 8.7489 13.0241 8.27824 12.7534C 7.80757 12.4827 7.37857 12.2078 6.9912 11.9287C 6.60384 11.6496 6.3102 11.4101 6.11028 11.2102L 5.79789 10.9103C 5.71459 10.827 5.60005 10.7021 5.45426 10.5354C 5.30848 10.3688 5.01068 9.98982 4.56084 9.39836C 4.111 8.80691 3.6695 8.17798 3.23632 7.51155C 2.80314 6.84512 2.29292 5.96629 1.70563 4.87501C 1.11834 3.78374 0.574793 2.65083 0.0749727 1.47625C 0.0249907 1.34296 0 1.2305 0 1.13887C 0 1.04724 0.0124953 0.980596 0.0374864 0.938944L 0.0874682 0.863971C 0.212423 0.705695 0.449834 0.626558 0.799709 0.626558L 4.22346 0.601567C 4.32343 0.618227 4.41922 0.645301 4.51086 0.682787C 4.60249 0.720274 4.66913 0.755677 4.71078 0.788998L 4.77326 0.826485C 4.90655 0.918119 5.00651 1.0514 5.07315 1.22634C 5.23976 1.64286 5.43135 2.07395 5.64794 2.51962C 5.86453 2.96529 6.0353 3.30475 6.16026 3.538L 6.36018 3.90037C 6.60176 4.40019 6.83501 4.83336 7.05993 5.19989C 7.28485 5.56643 7.48686 5.85174 7.66596 6.05583C 7.84506 6.25992 8.01791 6.42028 8.18452 6.53691C 8.35113 6.65353 8.49274 6.71184 8.60937 6.71184C 8.72599 6.71184 8.83845 6.69102 8.94674 6.64936C 8.9634 6.64103 8.98423 6.62021 9.00922 6.58689C 9.03421 6.55357 9.08419 6.46193 9.15917 6.31199C 9.23414 6.16204 9.29037 5.96628 9.32785 5.7247C 9.36534 5.48312 9.40491 5.14575 9.44656 4.71257C 9.48821 4.27939 9.48821 3.75875 9.44656 3.15064C 9.4299 2.81742 9.39241 2.51337 9.3341 2.23847C 9.27579 1.96357 9.21748 1.77197 9.15917 1.66368L 9.08419 1.51373C 8.87593 1.2305 8.5219 1.0514 8.02208 0.97643C 7.91378 0.95977 7.93461 0.859807 8.08456 0.676539C 8.21784 0.518263 8.37612 0.39331 8.55938 0.301676C 9.00089 0.085087 9.99635 -0.0148756 11.5458 0.0017851C 12.2289 0.0101154 12.7912 0.0642618 13.2327 0.164226C 13.3993 0.205878 13.5388 0.262107 13.6513 0.332915C 13.7637 0.403722 13.8491 0.503685 13.9074 0.632805C 13.9657 0.761926 14.0095 0.895209 14.0386 1.03266C 14.0678 1.17011 14.0824 1.35962 14.0824 1.6012C 14.0824 1.84278 14.0782 2.07186 14.0699 2.28845C 14.0615 2.50504 14.0511 2.79868 14.0386 3.16938C 14.0261 3.54008 14.0199 3.8837 14.0199 4.20026C 14.0199 4.29189 14.0157 4.46683 14.0074 4.72507C 13.9991 4.98331 13.997 5.18323 14.0012 5.32485C 14.0053 5.46646 14.0199 5.63515 14.0449 5.83091C 14.0699 6.02668 14.1178 6.18912 14.1886 6.31824C 14.2594 6.44736 14.3531 6.5494 14.4697 6.62437C 14.5364 6.64103 14.6072 6.6577 14.6822 6.67436C 14.7571 6.69102 14.8654 6.6452 15.007 6.53691C 15.1487 6.42861 15.3069 6.28491 15.4819 6.10581C 15.6568 5.92671 15.8734 5.64765 16.1316 5.26862C 16.3899 4.88959 16.6731 4.44184 16.9813 3.92536C 17.4811 3.059 17.9268 2.12185 18.3183 1.11388C 18.3517 1.03058 18.3933 0.957687 18.4433 0.89521C 18.4933 0.832732 18.5391 0.788999 18.5807 0.764008L 18.6307 0.726521L 18.6932 0.695283C 18.7182 0.682787 18.7723 0.670292 18.8556 0.657796C 18.9389 0.645301 19.0222 0.643218 19.1055 0.651549L 22.7042 0.626558C 23.0291 0.584906 23.2957 0.595319 23.5039 0.657796C 23.7122 0.720274 23.8413 0.788998 23.8913 0.863971L 23.9663 0.988926Z"/>
<path id="path1_fill" fill-rule="evenodd" d="M 0 0L 24 0L 24 24L 0 24L 0 0Z"/>
</defs>
</svg>
